<?xml version="1.0"?>
<svg xmlns="http://www.w3.org/2000/svg" height="512px" viewBox="0 0 512.00427 512" width="512px"><path d="m256.003906 102.402344c-4.710937 0-8.535156-3.8125-8.535156-8.53125v-85.332032c0-4.71875 3.824219-8.53515575 8.535156-8.53515575 4.707032 0 8.53125 3.81640575 8.53125 8.53515575v85.332032c0 4.71875-3.824218 8.53125-8.53125 8.53125zm0 0" fill="#FFFFFF"/><path d="m230.402344 42.671875c-2.183594 0-4.371094-.835937-6.035156-2.5-3.335938-3.335937-3.335938-8.730469 0-12.066406l25.601562-25.601563c3.335938-3.335937 8.730469-3.335937 12.066406 0 3.335938 3.335938 3.335938 8.730469 0 12.066406l-25.601562 25.601563c-1.664063 1.664063-3.847656 2.5-6.03125 2.5zm0 0" fill="#FFFFFF"/><path d="m281.601562 42.671875c-2.183593 0-4.367187-.835937-6.03125-2.5l-25.601562-25.601563c-3.335938-3.335937-3.335938-8.730468 0-12.066406 3.335938-3.335937 8.730469-3.335937 12.066406 0l25.601563 25.601563c3.335937 3.335937 3.335937 8.730469 0 12.066406-1.664063 1.664063-3.851563 2.5-6.035157 2.5zm0 0" fill="#FFFFFF"/><path d="m256.003906 512.003906c-4.710937 0-8.535156-3.8125-8.535156-8.53125v-85.335937c0-4.71875 3.824219-8.53125 8.535156-8.53125 4.707032 0 8.53125 3.8125 8.53125 8.53125v85.335937c0 4.71875-3.824218 8.53125-8.53125 8.53125zm0 0" fill="#FFFFFF"/><path d="m256.003906 512.003906c-2.1875 0-4.371094-.835937-6.035156-2.5-3.335938-3.335937-3.335938-8.730468 0-12.066406l25.601562-25.601562c3.335938-3.335938 8.726563-3.335938 12.066407 0 3.335937 3.339843 3.335937 8.730468 0 12.066406l-25.601563 25.601562c-1.664062 1.664063-3.847656 2.5-6.03125 2.5zm0 0" fill="#FFFFFF"/><path d="m256.003906 512.003906c-2.1875 0-4.371094-.835937-6.035156-2.5l-25.601562-25.601562c-3.335938-3.335938-3.335938-8.726563 0-12.066406 3.339843-3.335938 8.730468-3.335938 12.066406 0l25.601562 25.601562c3.335938 3.335938 3.335938 8.730469 0 12.066406-1.664062 1.664063-3.847656 2.5-6.03125 2.5zm0 0" fill="#FFFFFF"/><path d="m256.003906 426.671875c-94.105468 0-170.667968-76.5625-170.667968-170.667969 0-94.105468 76.5625-170.667968 170.667968-170.667968 94.105469 0 170.664063 76.5625 170.664063 170.667968 0 94.105469-76.558594 170.667969-170.664063 170.667969zm0-324.269531c-84.695312 0-153.601562 68.910156-153.601562 153.601562 0 84.695313 68.90625 153.601563 153.601562 153.601563 84.691406 0 153.597656-68.90625 153.597656-153.601563 0-84.691406-68.90625-153.601562-153.597656-153.601562zm0 0" fill="#FFFFFF"/><path d="m503.46875 264.539062h-85.332031c-4.710938 0-8.535157-3.816406-8.535157-8.535156s3.824219-8.53125 8.535157-8.53125h85.332031c4.710938 0 8.535156 3.8125 8.535156 8.53125s-3.824218 8.535156-8.535156 8.535156zm0 0" fill="#FFFFFF"/><path d="m503.46875 264.539062c-2.183594 0-4.367188-.835937-6.03125-2.5l-25.601562-25.601562c-3.335938-3.335938-3.335938-8.730469 0-12.066406 3.335937-3.335938 8.730468-3.335938 12.066406 0l25.597656 25.601562c3.339844 3.335938 3.339844 8.726563 0 12.066406-1.664062 1.664063-3.847656 2.5-6.03125 2.5zm0 0" fill="#FFFFFF"/><path d="m477.867188 290.136719c-2.183594 0-4.367188-.835938-6.03125-2.5-3.335938-3.335938-3.335938-8.730469 0-12.066407l25.601562-25.597656c3.335938-3.339844 8.726562-3.339844 12.0625 0 3.339844 3.335938 3.339844 8.726563 0 12.066406l-25.597656 25.597657c-1.664063 1.664062-3.847656 2.5-6.035156 2.5zm0 0" fill="#FFFFFF"/><path d="m93.867188 264.539062h-85.332032c-4.710937 0-8.53124975-3.816406-8.53124975-8.535156s3.82031275-8.53125 8.53124975-8.53125h85.332032c4.710937 0 8.535156 3.8125 8.535156 8.53125s-3.824219 8.535156-8.535156 8.535156zm0 0" fill="#FFFFFF"/><path d="m34.136719 290.136719c-2.1875 0-4.371094-.835938-6.035157-2.5l-25.597656-25.597657c-3.339844-3.339843-3.339844-8.730468 0-12.066406 3.335938-3.339844 8.726563-3.339844 12.066406 0l25.597657 25.597656c3.335937 3.335938 3.335937 8.730469 0 12.066407-1.664063 1.664062-3.847657 2.5-6.03125 2.5zm0 0" fill="#FFFFFF"/><path d="m8.535156 264.539062c-2.183594 0-4.367187-.835937-6.03125-2.5-3.339844-3.339843-3.339844-8.730468 0-12.066406l25.597656-25.601562c3.335938-3.335938 8.730469-3.335938 12.066407 0 3.335937 3.335937 3.335937 8.730468 0 12.066406l-25.597657 25.601562c-1.664062 1.664063-3.851562 2.5-6.035156 2.5zm0 0" fill="#FFFFFF"/><path d="m141.355469 149.890625c-2.183594 0-4.367188-.835937-6.03125-2.5l-60.339844-60.335937c-3.335937-3.339844-3.335937-8.730469 0-12.066407 3.335937-3.339843 8.730469-3.339843 12.066406 0l60.339844 60.335938c3.335937 3.339843 3.335937 8.730469 0 12.066406-1.664063 1.675781-3.847656 2.5-6.035156 2.5zm0 0" fill="#FFFFFF"/><path d="m81.019531 125.75c-4.710937 0-8.535156-3.8125-8.535156-8.53125v-36.199219c0-4.71875 3.824219-8.53125 8.535156-8.53125 4.707031 0 8.53125 3.8125 8.53125 8.53125v36.199219c0 4.71875-3.824219 8.53125-8.53125 8.53125zm0 0" fill="#FFFFFF"/><path d="m117.214844 89.554688h-36.195313c-4.710937 0-8.535156-3.816407-8.535156-8.535157s3.824219-8.53125 8.535156-8.53125h36.195313c4.710937 0 8.535156 3.8125 8.535156 8.53125s-3.816406 8.535157-8.535156 8.535157zm0 0" fill="#FFFFFF"/><path d="m430.988281 439.523438c-2.1875 0-4.371093-.835938-6.035156-2.5l-60.339844-60.339844c-3.335937-3.335938-3.335937-8.730469 0-12.066406 3.335938-3.335938 8.730469-3.335938 12.066407 0l60.339843 60.339843c3.335938 3.335938 3.335938 8.726563 0 12.066407-1.664062 1.664062-3.847656 2.5-6.03125 2.5zm0 0" fill="#FFFFFF"/><path d="m430.988281 439.523438c-4.710937 0-8.535156-3.816407-8.535156-8.535157v-36.199219c0-4.71875 3.824219-8.53125 8.535156-8.53125 4.707031 0 8.53125 3.8125 8.53125 8.53125v36.199219c0 4.71875-3.824219 8.535157-8.53125 8.535157zm0 0" fill="#FFFFFF"/><path d="m430.988281 439.523438h-36.199219c-4.710937 0-8.535156-3.816407-8.535156-8.535157s3.824219-8.53125 8.535156-8.53125h36.199219c4.707031 0 8.53125 3.8125 8.53125 8.53125s-3.824219 8.535157-8.53125 8.535157zm0 0" fill="#FFFFFF"/><path d="m370.648438 149.890625c-2.183594 0-4.371094-.835937-6.035157-2.5-3.335937-3.335937-3.335937-8.726563 0-12.066406l60.339844-60.335938c3.335937-3.339843 8.730469-3.339843 12.066406 0 3.335938 3.335938 3.335938 8.726563 0 12.066407l-60.339843 60.335937c-1.664063 1.675781-3.847657 2.5-6.03125 2.5zm0 0" fill="#FFFFFF"/><path d="m430.988281 89.554688h-36.199219c-4.710937 0-8.535156-3.816407-8.535156-8.535157s3.824219-8.53125 8.535156-8.53125h36.199219c4.707031 0 8.53125 3.8125 8.53125 8.53125s-3.824219 8.535157-8.53125 8.535157zm0 0" fill="#FFFFFF"/><path d="m430.988281 125.75c-4.710937 0-8.535156-3.8125-8.535156-8.53125v-36.199219c0-4.71875 3.824219-8.53125 8.535156-8.53125 4.707031 0 8.53125 3.8125 8.53125 8.53125v36.199219c0 4.71875-3.824219 8.53125-8.53125 8.53125zm0 0" fill="#FFFFFF"/><path d="m81.019531 439.523438c-2.1875 0-4.371093-.835938-6.035156-2.5-3.335937-3.339844-3.335937-8.730469 0-12.066407l60.339844-60.339843c3.335937-3.335938 8.730469-3.335938 12.066406 0 3.335937 3.335937 3.335937 8.730468 0 12.066406l-60.339844 60.339844c-1.664062 1.664062-3.847656 2.5-6.03125 2.5zm0 0" fill="#FFFFFF"/><path d="m117.214844 439.523438h-36.195313c-4.710937 0-8.535156-3.816407-8.535156-8.535157s3.824219-8.53125 8.535156-8.53125h36.195313c4.710937 0 8.535156 3.8125 8.535156 8.53125s-3.816406 8.535157-8.535156 8.535157zm0 0" fill="#FFFFFF"/><path d="m81.019531 439.523438c-4.710937 0-8.535156-3.816407-8.535156-8.535157v-36.199219c0-4.71875 3.824219-8.53125 8.535156-8.53125 4.707031 0 8.53125 3.8125 8.53125 8.53125v36.199219c0 4.71875-3.824219 8.535157-8.53125 8.535157zm0 0" fill="#FFFFFF"/><path d="m81.019531 439.523438c-4.710937 0-8.535156-3.816407-8.535156-8.535157v-36.199219c0-4.71875 3.824219-8.53125 8.535156-8.53125 4.707031 0 8.53125 3.8125 8.53125 8.53125v36.199219c0 4.71875-3.824219 8.535157-8.53125 8.535157zm0 0" fill="#FFFFFF"/><path d="m256.003906 426.671875c-35.039062 0-68.78125-10.625-97.554687-30.746094-1.921875-1.332031-3.199219-3.398437-3.550781-5.71875-.347657-2.3125.265624-4.667969 1.699218-6.511719l36.914063-47.484374c-29.183594-1.359376-45.089844-16.4375-45.855469-17.179688-2.289062-2.21875-3.152344-5.511719-2.238281-8.558594.90625-3.046875 3.429687-5.332031 6.554687-5.9375-.214844 0 18.695313-7.980468 18.695313-76.230468 0-26.402344 7.867187-47.164063 23.390625-61.710938 23.773437-22.28125 57.0625-21.695312 61.945312-21.480469 4.871094-.203125 38.160156-.808593 61.941406 21.480469 15.523438 14.554688 23.390626 35.316406 23.390626 61.71875 0 68.582031 19.097656 76.296875 19.292968 76.367188 3.125.605468 5.34375 2.824218 6.253906 5.871093.90625 3.035157-.253906 6.261719-2.53125 8.480469-.769531.75-16.683593 15.820312-45.859374 17.179688l36.914062 47.484374c1.433594 1.84375 2.046875 4.199219 1.699219 6.511719-.351563 2.3125-1.628907 4.386719-3.550781 5.71875-28.78125 20.121094-62.523438 30.746094-97.550782 30.746094zm-80.257812-39.792969c24.167968 14.890625 51.738281 22.726563 80.257812 22.726563 28.515625 0 56.078125-7.835938 80.253906-22.726563l-39.925781-51.359375c-2.730469-2.65625-3.730469-6.65625-2.398437-10.378906 1.578125-4.417969 5.871094-7.183594 10.613281-6.511719 18.066406 2.238282 31.164063-2.003906 39.074219-6.023437-9.136719-10.53125-19.351563-33.636719-19.351563-84.292969 0-21.441406-6.023437-37.980469-17.902343-49.175781-19.671876-18.527344-49.539063-16.972657-49.835938-16.957031-.359375.019531-.734375.019531-1.074219 0-.292969 0-30.140625-1.578126-49.820312 16.957031-11.875 11.195312-17.902344 27.734375-17.902344 49.175781 0 50.664062-10.214844 73.773438-19.351563 84.300781 7.890626 4.011719 21.007813 8.246094 39.074219 6.027344 4.648438-.640625 9.027344 2.070313 10.605469 6.519531 1.324219 3.71875.332031 7.710938-2.40625 10.375zm0 0" fill="#FFFFFF"/></svg>
